<svg width="32" height="32" viewBox="0 0 32 32" fill="none" xmlns="http://www.w3.org/2000/svg">
<rect width="32" height="32" rx="16" fill="white"/>
<path d="M16.1338 17.6057V17.0564C16.1338 16.1762 15.4225 15.4719 14.5493 15.4719L14.8943 15.2325C15.4577 14.8522 15.7957 14.2113 15.7957 13.5353C15.7957 12.986 15.5775 12.493 15.2183 12.1409C14.8661 11.7818 14.3732 11.5635 13.8239 11.5635H9V20.2254H13.5141C14.9577 20.2254 16.1338 19.0494 16.1338 17.6057ZM10.838 13.0001H13.0704C13.6197 13.0001 14.0634 13.4438 14.0634 13.993C14.0634 14.5423 13.6197 14.986 13.0704 14.986H10.838V13.0001ZM10.838 18.8381V16.3522H13.162C13.8521 16.3522 14.4085 16.9085 14.4085 17.5917C14.4085 18.2818 13.8521 18.8381 13.162 18.8381H10.838Z" fill="#202020"/>
<path d="M19.8098 13.7534C18.0492 13.7534 16.6196 15.2464 16.6196 17.0914C16.6196 18.9365 18.0492 20.4365 19.8098 20.4365C21.183 20.4365 22.359 19.521 22.8027 18.2393H21.2604C20.8872 19.1689 19.8098 19.014 19.8098 19.014C18.3168 18.9013 18.3731 17.4717 18.3731 17.4717H22.9788C22.9929 17.3449 22.9999 17.2182 22.9999 17.0914C22.9999 15.2464 21.5703 13.7534 19.8098 13.7534ZM18.507 16.352C18.507 15.5985 19.1196 14.9858 19.8731 14.9858C20.6337 14.9858 21.2464 15.5985 21.2464 16.352H18.507Z" fill="#202020"/>
<path d="M18.075 12.1499H21.659V12.9989H18.075V12.1499Z" fill="#202020"/>
</svg>
