<svg width="20" height="20" viewBox="0 0 20 20" fill="none" xmlns="http://www.w3.org/2000/svg">
<path d="M19.5384 10.4077H0.461526C0.234603 10.4077 0.0512695 10.2244 0.0512695 9.99745C0.0512695 9.77052 0.234603 9.58719 0.461526 9.58719H18.5474L16.0577 7.09745C15.8974 6.93719 15.8974 6.67693 16.0577 6.51668C16.2179 6.35642 16.4782 6.35642 16.6385 6.51668L19.8295 9.7077C19.9474 9.82565 19.982 10.0013 19.9179 10.1551C19.8538 10.3077 19.7038 10.4077 19.5384 10.4077Z" fill="#FAC660"/>
<path d="M16.3435 13.6025C16.2384 13.6025 16.1333 13.5628 16.0538 13.482C15.8935 13.3218 15.8935 13.0615 16.0538 12.9012L19.2487 9.70637C19.4089 9.54612 19.6692 9.54612 19.8294 9.70637C19.9897 9.86663 19.9897 10.1269 19.8294 10.2871L16.6346 13.482C16.5538 13.5628 16.4487 13.6025 16.3435 13.6025Z" fill="#FAC660"/>
</svg>
